<?xml version="1.0" encoding="UTF-8"?>
<svg viewBox="0 0 400 800" xmlns="http://www.w3.org/2000/svg">
  <!-- Phone outline -->
  <rect x="25" y="25" width="350" height="750" rx="20" ry="20" fill="#f5f5f5" stroke="#333" stroke-width="2"/>
  
  <!-- Status bar -->
  <rect x="25" y="25" width="350" height="30" rx="20" ry="20" fill="#333"/>
  
  <!-- App Title -->
  <rect x="25" y="55" width="350" height="50" fill="#3f51b5"/>
  <text x="200" y="85" font-family="Arial, sans-serif" font-size="18" text-anchor="middle" font-weight="bold" fill="#fff">Finance Tracker</text>
  <circle cx="350" cy="80" r="15" fill="#fff" opacity="0.8"/>
  <text x="350" y="85" font-family="Arial, sans-serif" font-size="16" text-anchor="middle" font-weight="bold" fill="#3f51b5">+</text>
  
  <!-- User info -->
  <rect x="45" y="115" width="310" height="60" rx="5" ry="5" fill="#fff" stroke="#ddd" stroke-width="1"/>
  <circle cx="75" cy="145" r="15" fill="#3f51b5"/>
  <text x="75" y="150" font-family="Arial, sans-serif" font-size="14" text-anchor="middle" font-weight="bold" fill="#fff">JD</text>
  <text x="180" y="135" font-family="Arial, sans-serif" font-size="14" fill="#333">Hello, John!</text>
  <text x="180" y="155" font-family="Arial, sans-serif" font-size="12" fill="#666">Last updated: Today, 10:45 AM</text>
  
  <!-- Overall Balance -->
  <rect x="45" y="185" width="310" height="100" rx="5" ry="5" fill="#fff" stroke="#ddd" stroke-width="1"/>
  <text x="65" y="210" font-family="Arial, sans-serif" font-size="14" fill="#666">Total Balance</text>
  <text x="65" y="240" font-family="Arial, sans-serif" font-size="24" font-weight="bold" fill="#333">$12,459.32</text>
  <text x="65" y="265" font-family="Arial, sans-serif" font-size="14" fill="#4caf50">+$253.14 this month</text>
  
  <!-- Accounts section -->
  <text x="45" y="315" font-family="Arial, sans-serif" font-size="16" font-weight="bold" fill="#333">Accounts</text>
  
  <!-- Account 1 -->
  <rect x="45" y="325" width="310" height="70" rx="5" ry="5" fill="#fff" stroke="#ddd" stroke-width="1"/>
  <rect x="45" y="325" width="10" height="70" rx="5" ry="5" fill="#2196f3"/>
  <text x="85" y="345" font-family="Arial, sans-serif" font-size="14" font-weight="bold" fill="#333">Checking Account</text>
  <text x="85" y="365" font-family="Arial, sans-serif" font-size="12" fill="#666">Bank of America</text>
  <text x="315" y="355" font-family="Arial, sans-serif" font-size="16" font-weight="bold" text-anchor="end" fill="#333">$3,241.53</text>
  
  <!-- Account 2 -->
  <rect x="45" y="405" width="310" height="70" rx="5" ry="5" fill="#fff" stroke="#ddd" stroke-width="1"/>
  <rect x="45" y="405" width="10" height="70" rx="5" ry="5" fill="#4caf50"/>
  <text x="85" y="425" font-family="Arial, sans-serif" font-size="14" font-weight="bold" fill="#333">Savings Account</text>
  <text x="85" y="445" font-family="Arial, sans-serif" font-size="12" fill="#666">Chase Bank</text>
  <text x="315" y="435" font-family="Arial, sans-serif" font-size="16" font-weight="bold" text-anchor="end" fill="#333">$8,217.79</text>
  
  <!-- Account 3 -->
  <rect x="45" y="485" width="310" height="70" rx="5" ry="5" fill="#fff" stroke="#ddd" stroke-width="1"/>
  <rect x="45" y="485" width="10" height="70" rx="5" ry="5" fill="#ff9800"/>
  <text x="85" y="505" font-family="Arial, sans-serif" font-size="14" font-weight="bold" fill="#333">Credit Card</text>
  <text x="85" y="525" font-family="Arial, sans-serif" font-size="12" fill="#666">Visa Platinum</text>
  <text x="315" y="515" font-family="Arial, sans-serif" font-size="16" font-weight="bold" text-anchor="end" fill="#f44336">-$1,000.00</text>
  
  <!-- Budget section -->
  <text x="45" y="585" font-family="Arial, sans-serif" font-size="16" font-weight="bold" fill="#333">Monthly Budget</text>
  
  <!-- Budget progress -->
  <rect x="45" y="595" width="310" height="120" rx="5" ry="5" fill="#fff" stroke="#ddd" stroke-width="1"/>
  
  <!-- Food -->
  <text x="65" y="615" font-family="Arial, sans-serif" font-size="14" fill="#333">Food</text>
  <text x="315" y="615" font-family="Arial, sans-serif" font-size="14" text-anchor="end" fill="#333">$320/$400</text>
  <rect x="65" y="625" width="270" height="10" rx="5" ry="5" fill="#f0f0f0"/>
  <rect x="65" y="625" width="216" height="10" rx="5" ry="5" fill="#4caf50"/>
  
  <!-- Utilities -->
  <text x="65" y="655" font-family="Arial, sans-serif" font-size="14" fill="#333">Utilities</text>
  <text x="315" y="655" font-family="Arial, sans-serif" font-size="14" text-anchor="end" fill="#333">$140/$150</text>
  <rect x="65" y="665" width="270" height="10" rx="5" ry="5" fill="#f0f0f0"/>
  <rect x="65" y="665" width="252" height="10" rx="5" ry="5" fill="#ff9800"/>
  
  <!-- Entertainment -->
  <text x="65" y="695" font-family="Arial, sans-serif" font-size="14" fill="#333">Entertainment</text>
  <text x="315" y="695" font-family="Arial, sans-serif" font-size="14" text-anchor="end" fill="#333">$120/$100</text>
  <rect x="65" y="705" width="270" height="10" rx="5" ry="5" fill="#f0f0f0"/>
  <rect x="65" y="705" width="290" height="10" rx="5" ry="5" fill="#f44336"/>
  
  <!-- Navigation menu -->
  <rect x="25" y="735" width="350" height="40" fill="#fff" stroke="#ddd" stroke-width="1"/>
  
  <!-- Menu icons -->
  <circle cx="75" cy="755" r="15" fill="#f5f5f5" stroke="#3f51b5" stroke-width="2"/>
  <text x="75" y="760" font-family="Arial, sans-serif" font-size="12" text-anchor="middle" fill="#3f51b5">Home</text>
  
  <circle cx="150" cy="755" r="15" fill="#f5f5f5" stroke="#666" stroke-width="1"/>
  <text x="150" y="760" font-family="Arial, sans-serif" font-size="12" text-anchor="middle" fill="#666">Trans</text>
  
  <circle cx="225" cy="755" r="15" fill="#f5f5f5" stroke="#666" stroke-width="1"/>
  <text x="225" y="760" font-family="Arial, sans-serif" font-size="12" text-anchor="middle" fill="#666">Budget</text>
  
  <circle cx="300" cy="755" r="15" fill="#f5f5f5" stroke="#666" stroke-width="1"/>
  <text x="300" y="760" font-family="Arial, sans-serif" font-size="12" text-anchor="middle" fill="#666">Goals</text>
</svg>